<svg id="lvl7" viewBox="0 0 396.55 287.09" version="1.1" xmlns="http://www.w3.org/2000/svg" xmlns:xlink="http://www.w3.org/1999/xlink"><g><path class="c1" d="M390.25,241.53c-4.82-6.32-11.86-10.8-19.13-14a45.67,45.67,0,0,0,12.3-14c8.67-15.55,6.88-34.7-5-53.91a61.28,61.28,0,0,0-5.81-7.91,53.1,53.1,0,0,0,10-15.28c3.81-8.83,3.38-17.55-1.23-24.54-5.19-7.91-15.17-12.63-26.68-12.63a51.56,51.56,0,0,0-24.31,6.49c11.22-15.51,24.57-39.4,22.53-63.21-1.42-16.54-10-30.68-25.6-42A2.53,2.53,0,0,0,324,.83c-.2.23-13.82,15.4-30.87,38.6a94.31,94.31,0,0,0-29.89-8.25,2.55,2.55,0,0,0-2.65,1.88c-6,23.07-10.9,44.3-15,63.55-16.84,36.32-35.41,90.38-18.7,126.83l0,0c0,.08.09.15.14.23a1.29,1.29,0,0,0,.09.16l0,0,0,0c0,.07.12.13.18.2s.12.13.19.19a.71.71,0,0,1,.14.1l.13.08.19.12,0,0L336,277.77c12.38,6.1,24.09,9.32,33.85,9.32h0c14.41,0,23.64-6.91,26-19.45C397.73,257.65,395.84,248.86,390.25,241.53Zm-16.16-79.26a69,69,0,0,1,7.54,16.36c3.24,10.81,2.77,21.11-1.45,30.11-.37.78-.75,1.56-1.18,2.32a41.63,41.63,0,0,1-13.49,14.33,52.23,52.23,0,0,1-6,3.43,58.93,58.93,0,0,1-9.52,3.6,26.9,26.9,0,0,0-.67-6,22.17,22.17,0,0,0-2.46-6.32,22,22,0,0,0-3.37-4.41c-6-6.08-15.27-8.48-23-9.36a28.6,28.6,0,0,0,13-15.76c1.83-5.43,1.17-10.55-1.89-14.83-4.1-5.71-12.07-9.13-21.34-9.17a40.32,40.32,0,0,0,14.27-22.16,22.78,22.78,0,0,0,.57-6c1.61-.13,3.3-.2,5.05-.2,10.41,0,24,2.61,35.29,13.38a49.14,49.14,0,0,1,3.5,3.67A55.82,55.82,0,0,1,374.09,162.27Zm-19.39-58c9.8,0,18.2,3.87,22.46,10.35,3.63,5.52,3.91,12.54.8,19.75A48,48,0,0,1,369.07,148c-12.47-12-27.45-14.88-38.91-14.88-2.07,0-4,.09-5.93.25a16.62,16.62,0,0,0-2.78-5.22,17.14,17.14,0,0,0-3.84-3.51c.7-1.69,1.35-3.36,2-5C330.49,109.74,342.82,104.31,354.7,104.31ZM326.18,6c13.17,10.21,20.46,22.65,21.69,37,2.09,24.25-13.13,48.91-24.28,63.47,4-16.79,2.73-31.25-3.8-43.2-5.37-9.83-13.58-16.68-22.09-21.43C311.09,23.57,322.23,10.49,326.18,6ZM264.89,36.47a93.19,93.19,0,0,1,25.1,7.2c1.55.7,3.11,1.48,4.66,2.32,8,4.38,15.77,10.67,20.7,19.68,7.27,13.3,7.27,30.28.06,50.63-.7,2-1.49,4-2.33,6.06-.41-.15-.82-.29-1.25-.42a24.4,24.4,0,0,0-6.83-1,33.65,33.65,0,0,0-19,6.38c5.41-12.06,10.52-28.91,6.4-44.07A37.39,37.39,0,0,0,281.35,65.2a45.27,45.27,0,0,0-4-3.28,53.76,53.76,0,0,0-8.09-4.79,2.53,2.53,0,0,0-3.26.94c-.68,1.1-5.16,8.41-11.08,19.68Q259.31,58.25,264.89,36.47Zm-24.48,85.8c3.15-8.28,6.53-16.14,9.83-23.32,8.18-17.77,15.94-31.31,18.84-36.22a47.07,47.07,0,0,1,5.43,3.46,37.46,37.46,0,0,1,4,3.31,32.42,32.42,0,0,1,9,15.11c6.45,23.76-12.35,52.83-14.5,56.06l-.2.28A2.53,2.53,0,0,0,277,143.8l.2-.29C284.69,132.57,295.06,126,305,126a19.15,19.15,0,0,1,6.09,1,14.39,14.39,0,0,1,4.46,2.41,11.57,11.57,0,0,1,1.93,1.9,11.79,11.79,0,0,1,1.59,2.66,13,13,0,0,1,1,5,17.82,17.82,0,0,1-.46,4.32c-3.28,14.12-14.84,21.83-21.56,25.2a40.28,40.28,0,0,0-6.51,2.71,2.53,2.53,0,0,0,1.89,4.67,45.29,45.29,0,0,0,6.51-2.67,34.57,34.57,0,0,1,10.16-1.55c7.6,0,14.27,2.71,17.39,7.06,2.11,2.94,2.52,6.39,1.21,10.26-5,14.78-21.2,17-23.17,17.21a2.46,2.46,0,0,0-2.16,2.77,2.58,2.58,0,0,0,2.83,2.24c.6,0,2.79-.25,5.91-.25,7.29,0,20.59,1.08,27.79,8.33.29.29.55.6.81.9a16.53,16.53,0,0,1,3.13,5.4,21.16,21.16,0,0,1,1.1,7.1c0,.36-.05.69-.08,1a11.84,11.84,0,0,1-1.66,5.46c-3.41,5.41-11.07,6.4-16.12,6.4A60.83,60.83,0,0,1,310.59,243l-25.15-7.17-54.16-15.44-.28-.08a60.88,60.88,0,0,1-3.43-10.45c-3.07-12.95-2.59-27.62,0-42.57C230.17,152.05,235,136.56,240.41,122.27ZM390.87,266.71c-2.38,12.66-12.75,15.32-21,15.32-9,0-19.92-3-31.61-8.8L255.5,232.52l53.7,15.31a65.83,65.83,0,0,0,17.88,2.77h0c11.92,0,19.84-4.68,22.18-12.75a63.09,63.09,0,0,0,16.8-6.85c7.65,2.92,15.3,7.23,20.17,13.6C390.91,250.74,392.48,258.18,390.87,266.71Z"/><path class="c2" d="M317.61,124.66a17.14,17.14,0,0,1,3.84,3.51,16.62,16.62,0,0,1,2.78,5.22c1.89-.16,3.86-.25,5.93-.25,11.46,0,26.44,2.9,38.91,14.88A48,48,0,0,0,378,134.41c3.11-7.21,2.83-14.23-.8-19.75-4.26-6.48-12.66-10.35-22.46-10.35-11.88,0-24.21,5.43-35.12,15.33C319,121.3,318.31,123,317.61,124.66Z"/><path class="c2" d="M319.79,63.24c6.53,11.95,7.77,26.41,3.8,43.2C334.74,91.88,350,67.22,347.87,43c-1.23-14.36-8.52-26.8-21.69-37-3.95,4.53-15.09,17.61-28.48,35.85C306.21,46.56,314.42,53.41,319.79,63.24Z"/><path class="c3" d="M369,155.25a49.14,49.14,0,0,0-3.5-3.67c-11.32-10.77-24.88-13.38-35.29-13.38-1.75,0-3.44.07-5.05.2a22.78,22.78,0,0,1-.57,6,40.32,40.32,0,0,1-14.27,22.16c9.27,0,17.24,3.46,21.34,9.17,3.06,4.28,3.72,9.4,1.89,14.83a28.6,28.6,0,0,1-13,15.76c7.74.88,17,3.28,23,9.36a22,22,0,0,1,3.37,4.41,22.17,22.17,0,0,1,2.46,6.32,26.9,26.9,0,0,1,.67,6,58.93,58.93,0,0,0,9.52-3.6,52.23,52.23,0,0,0,6-3.43A41.63,41.63,0,0,0,379,211.06c.43-.76.81-1.54,1.18-2.32,4.22-9,4.69-19.3,1.45-30.11a69,69,0,0,0-7.54-16.36A55.82,55.82,0,0,0,369,155.25Z"/><path class="c3" d="M269.23,57.13a53.76,53.76,0,0,1,8.09,4.79,45.27,45.27,0,0,1,4,3.28,37.39,37.39,0,0,1,11.09,18.09c4.12,15.16-1,32-6.4,44.07A33.65,33.65,0,0,1,305,121a24.4,24.4,0,0,1,6.83,1c.43.13.84.27,1.25.42.84-2,1.63-4.08,2.33-6.06,7.21-20.35,7.21-37.33-.06-50.63-4.93-9-12.66-15.3-20.7-19.68-1.55-.84-3.11-1.62-4.66-2.32a93.19,93.19,0,0,0-25.1-7.2q-5.61,21.78-10,41.28c5.92-11.27,10.4-18.58,11.08-19.68A2.53,2.53,0,0,1,269.23,57.13Z"/><path class="c4" d="M310.59,243a60.83,60.83,0,0,0,16.49,2.58c5.05,0,12.71-1,16.12-6.4a11.84,11.84,0,0,0,1.66-5.46c0-.34.07-.67.08-1a21.16,21.16,0,0,0-1.1-7.1,16.53,16.53,0,0,0-3.13-5.4c-.26-.3-.52-.61-.81-.9-7.2-7.25-20.5-8.33-27.79-8.33-3.12,0-5.31.2-5.91.25a2.58,2.58,0,0,1-2.83-2.24,2.46,2.46,0,0,1,2.16-2.77c2-.22,18.19-2.43,23.17-17.21,1.31-3.87.9-7.32-1.21-10.26-3.12-4.35-9.79-7.06-17.39-7.06a34.57,34.57,0,0,0-10.16,1.55,45.29,45.29,0,0,1-6.51,2.67,2.53,2.53,0,0,1-1.89-4.67,40.28,40.28,0,0,1,6.51-2.71c6.72-3.37,18.28-11.08,21.56-25.2a17.82,17.82,0,0,0,.46-4.32,13,13,0,0,0-1-5,11.79,11.79,0,0,0-1.59-2.66,11.57,11.57,0,0,0-1.93-1.9,14.39,14.39,0,0,0-4.46-2.41,19.15,19.15,0,0,0-6.09-1c-9.94,0-20.31,6.53-27.76,17.47l-.2.29a2.53,2.53,0,0,1-4.18-2.85l.2-.28c2.15-3.23,20.95-32.3,14.5-56.06a32.42,32.42,0,0,0-9-15.11,37.46,37.46,0,0,0-4-3.31,47.07,47.07,0,0,0-5.43-3.46c-2.9,4.91-10.66,18.45-18.84,36.22-3.3,7.18-6.68,15-9.83,23.32-5.45,14.29-10.24,29.78-12.85,45-2.58,14.95-3.06,29.62,0,42.57A60.88,60.88,0,0,0,231,220.27l.28.08,54.16,15.44Z"/><path class="c2" d="M386.23,244.6c-4.87-6.37-12.52-10.68-20.17-13.6a63.09,63.09,0,0,1-16.8,6.85c-2.34,8.07-10.26,12.75-22.18,12.75h0a65.83,65.83,0,0,1-17.88-2.77l-53.7-15.31,82.73,40.71c11.69,5.76,22.62,8.8,31.61,8.8,8.28,0,18.65-2.66,21-15.32C392.48,258.18,390.91,250.74,386.23,244.6Z"/><path class="c1" d="M.71,267.64c2.36,12.54,11.59,19.45,26,19.45h0c9.76,0,21.47-3.22,33.85-9.32L168.5,224.65l0,0,.19-.12.13-.08a.71.71,0,0,1,.14-.1l.19-.19c.06-.07.13-.13.18-.2l0,0,0,0a1.29,1.29,0,0,0,.09-.16c0-.08.1-.15.14-.23l0,0c16.7-36.45-1.87-90.51-18.7-126.83-4.07-19.25-9-40.48-15-63.55a2.55,2.55,0,0,0-2.65-1.88,94.31,94.31,0,0,0-29.89,8.25C86.43,16.23,72.8,1.06,72.6.83A2.53,2.53,0,0,0,69.23.49c-15.56,11.36-24.17,25.5-25.6,42-2,23.81,11.31,47.7,22.53,63.21a51.56,51.56,0,0,0-24.31-6.49c-11.51,0-21.48,4.72-26.68,12.63-4.6,7-5,15.71-1.23,24.54A53.1,53.1,0,0,0,24,151.7a61.28,61.28,0,0,0-5.81,7.91c-11.91,19.21-13.69,38.36-5,53.91a45.67,45.67,0,0,0,12.3,14c-7.27,3.16-14.31,7.64-19.13,14C.71,248.86-1.18,257.65.71,267.64ZM27.6,155.25c1.14-1.33,2.31-2.53,3.5-3.67C42.42,140.81,56,138.2,66.39,138.2c1.76,0,3.44.07,5.06.2a22.77,22.77,0,0,0,.56,6,40.37,40.37,0,0,0,14.27,22.16C77,166.61,69,170,65,175.74c-3.07,4.28-3.73,9.4-1.9,14.83a28.64,28.64,0,0,0,13,15.76c-7.74.88-17,3.28-23,9.36a21.54,21.54,0,0,0-3.36,4.41,21.9,21.9,0,0,0-2.47,6.32,27.5,27.5,0,0,0-.67,6,58.93,58.93,0,0,1-9.52-3.6,52.23,52.23,0,0,1-6-3.43,41.63,41.63,0,0,1-13.49-14.33c-.43-.76-.81-1.54-1.18-2.32-4.22-9-4.68-19.3-1.44-30.11a68.57,68.57,0,0,1,7.53-16.36A55.82,55.82,0,0,1,27.6,155.25ZM77,119.64q.92,2.49,2,5a17.09,17.09,0,0,0-3.83,3.51,16.45,16.45,0,0,0-2.79,5.22c-1.89-.16-3.86-.25-5.93-.25C54.93,133.14,40,136,27.49,148a47.82,47.82,0,0,1-8.9-13.61c-3.11-7.21-2.83-14.23.81-19.75,4.25-6.48,12.65-10.35,22.45-10.35C53.73,104.31,66.06,109.74,77,119.64ZM98.85,41.81c-8.51,4.75-16.72,11.6-22.09,21.43C70.23,75.19,69,89.65,73,106.44,61.81,91.88,46.6,67.22,48.68,43c1.23-14.36,8.52-26.8,21.69-37C74.32,10.49,85.46,23.57,98.85,41.81Zm42.81,35.94c-5.91-11.27-10.4-18.58-11.08-19.68a2.53,2.53,0,0,0-3.26-.94,53.76,53.76,0,0,0-8.09,4.79,45.27,45.27,0,0,0-4,3.28,37.39,37.39,0,0,0-11.09,18.09c-4.12,15.16,1,32,6.41,44.07a33.7,33.7,0,0,0-19-6.38,24.4,24.4,0,0,0-6.83,1c-.43.13-.84.27-1.25.42-.84-2-1.63-4.08-2.33-6.06C73.92,96,73.93,79,81.2,65.67c4.92-9,12.66-15.3,20.7-19.68,1.55-.84,3.11-1.62,4.66-2.32a93.19,93.19,0,0,1,25.1-7.2Q137.27,58.25,141.66,77.75ZM169,167.25c2.58,14.95,3.06,29.62,0,42.57a62.67,62.67,0,0,1-3.43,10.45l-.29.08-54.16,15.44L86,243a60.89,60.89,0,0,1-16.49,2.58c-5.06,0-12.71-1-16.11-6.4a11.73,11.73,0,0,1-1.67-5.46c0-.34-.07-.67-.07-1a20.92,20.92,0,0,1,1.09-7.1,16.53,16.53,0,0,1,3.13-5.4c.26-.3.52-.61.81-.9,7.2-7.25,20.5-8.33,27.79-8.33,3.12,0,5.31.2,5.91.25a2.58,2.58,0,0,0,2.83-2.24A2.46,2.46,0,0,0,91,206.16c-2-.22-18.19-2.43-23.17-17.21-1.31-3.87-.9-7.32,1.21-10.26,3.12-4.35,9.79-7.06,17.39-7.06a34.57,34.57,0,0,1,10.16,1.55,45.29,45.29,0,0,0,6.51,2.67,2.53,2.53,0,0,0,1.89-4.67,40.28,40.28,0,0,0-6.51-2.71c-6.72-3.37-18.28-11.08-21.56-25.2a17.82,17.82,0,0,1-.46-4.32,13,13,0,0,1,1-5,11.79,11.79,0,0,1,1.59-2.66,11.57,11.57,0,0,1,1.93-1.9A14.51,14.51,0,0,1,85.46,127a19.15,19.15,0,0,1,6.09-1c9.94,0,20.32,6.53,27.76,17.47l.2.29a2.53,2.53,0,0,0,4.18-2.85l-.2-.28c-2.15-3.23-20.95-32.3-14.5-56.06a32.42,32.42,0,0,1,9-15.11,37.46,37.46,0,0,1,4-3.31,47.07,47.07,0,0,1,5.43-3.46c2.9,4.91,10.66,18.45,18.84,36.22,3.31,7.18,6.68,15,9.83,23.32C161.59,136.56,166.38,152.05,169,167.25ZM10.32,244.6c4.87-6.37,12.52-10.68,20.17-13.6a63.09,63.09,0,0,0,16.8,6.85c2.34,8.07,10.26,12.75,22.18,12.75h0a65.83,65.83,0,0,0,17.88-2.77l53.7-15.31L58.32,273.23C46.63,279,35.7,282,26.71,282c-8.28,0-18.64-2.66-21-15.32C4.08,258.18,5.64,250.74,10.32,244.6Z"/><path class="c2" d="M78.94,124.66a17.09,17.09,0,0,0-3.83,3.51,16.45,16.45,0,0,0-2.79,5.22c-1.89-.16-3.86-.25-5.93-.25C54.93,133.14,40,136,27.49,148a47.82,47.82,0,0,1-8.9-13.61c-3.11-7.21-2.83-14.23.81-19.75,4.25-6.48,12.65-10.35,22.45-10.35,11.88,0,24.21,5.43,35.13,15.33Q77.9,122.13,78.94,124.66Z"/><path class="c2" d="M76.76,63.24C70.23,75.19,69,89.65,73,106.44,61.81,91.88,46.6,67.22,48.68,43c1.23-14.36,8.52-26.8,21.69-37,3.95,4.53,15.09,17.61,28.48,35.85C90.34,46.56,82.13,53.41,76.76,63.24Z"/><path class="c3" d="M27.6,155.25c1.14-1.33,2.31-2.53,3.5-3.67C42.42,140.81,56,138.2,66.39,138.2c1.76,0,3.44.07,5.06.2a22.77,22.77,0,0,0,.56,6,40.37,40.37,0,0,0,14.27,22.16C77,166.61,69,170,65,175.74c-3.07,4.28-3.73,9.4-1.9,14.83a28.64,28.64,0,0,0,13,15.76c-7.74.88-17,3.28-23,9.36a21.54,21.54,0,0,0-3.36,4.41,21.9,21.9,0,0,0-2.47,6.32,27.5,27.5,0,0,0-.67,6,58.93,58.93,0,0,1-9.52-3.6,52.23,52.23,0,0,1-6-3.43,41.63,41.63,0,0,1-13.49-14.33c-.43-.76-.81-1.54-1.18-2.32-4.22-9-4.68-19.3-1.44-30.11a68.57,68.57,0,0,1,7.53-16.36A55.82,55.82,0,0,1,27.6,155.25Z"/><path class="c3" d="M127.32,57.13a53.76,53.76,0,0,0-8.09,4.79,45.27,45.27,0,0,0-4,3.28,37.39,37.39,0,0,0-11.09,18.09c-4.12,15.16,1,32,6.41,44.07a33.7,33.7,0,0,0-19-6.38,24.4,24.4,0,0,0-6.83,1c-.43.13-.84.27-1.25.42-.84-2-1.63-4.08-2.33-6.06C73.92,96,73.93,79,81.2,65.67c4.92-9,12.66-15.3,20.7-19.68,1.55-.84,3.11-1.62,4.66-2.32a93.19,93.19,0,0,1,25.1-7.2q5.61,21.78,10,41.28c-5.91-11.27-10.4-18.58-11.08-19.68A2.53,2.53,0,0,0,127.32,57.13Z"/><path class="c4" d="M86,243a60.89,60.89,0,0,1-16.49,2.58c-5.06,0-12.71-1-16.11-6.4a11.73,11.73,0,0,1-1.67-5.46c0-.34-.07-.67-.07-1a20.92,20.92,0,0,1,1.09-7.1,16.53,16.53,0,0,1,3.13-5.4c.26-.3.52-.61.81-.9,7.2-7.25,20.5-8.33,27.79-8.33,3.12,0,5.31.2,5.91.25a2.58,2.58,0,0,0,2.83-2.24A2.46,2.46,0,0,0,91,206.16c-2-.22-18.19-2.43-23.17-17.21-1.31-3.87-.9-7.32,1.21-10.26,3.12-4.35,9.79-7.06,17.39-7.06a34.57,34.57,0,0,1,10.16,1.55,45.29,45.29,0,0,0,6.51,2.67,2.53,2.53,0,0,0,1.89-4.67,40.28,40.28,0,0,0-6.51-2.71c-6.72-3.37-18.28-11.08-21.56-25.2a17.82,17.82,0,0,1-.46-4.32,13,13,0,0,1,1-5,11.79,11.79,0,0,1,1.59-2.66,11.57,11.57,0,0,1,1.93-1.9A14.51,14.51,0,0,1,85.46,127a19.15,19.15,0,0,1,6.09-1c9.94,0,20.32,6.53,27.76,17.47l.2.29a2.53,2.53,0,0,0,4.18-2.85l-.2-.28c-2.15-3.23-20.95-32.3-14.5-56.06a32.42,32.42,0,0,1,9-15.11,37.46,37.46,0,0,1,4-3.31,47.07,47.07,0,0,1,5.43-3.46c2.9,4.91,10.66,18.45,18.84,36.22,3.31,7.18,6.68,15,9.83,23.32,5.45,14.29,10.24,29.78,12.85,45,2.58,14.95,3.06,29.62,0,42.57a62.67,62.67,0,0,1-3.43,10.45l-.29.08-54.16,15.44Z"/><path class="c2" d="M10.32,244.6c4.87-6.37,12.52-10.68,20.17-13.6a63.09,63.09,0,0,0,16.8,6.85c2.34,8.07,10.26,12.75,22.18,12.75h0a65.83,65.83,0,0,0,17.88-2.77l53.7-15.31L58.32,273.23C46.63,279,35.7,282,26.71,282c-8.28,0-18.64-2.66-21-15.32C4.08,258.18,5.64,250.74,10.32,244.6Z"/></g></svg>